<mxfile host="app.diagrams.net" agent="Mozilla/5.0 (Windows NT 10.0; Win64; x64) AppleWebKit/537.36 (KHTML, like Gecko) Chrome/131.0.0.0 Safari/537.36" version="25.0.3">
  <diagram name="Trang-1" id="-elKBZIhHCLBLLd7ptd7">
    <mxGraphModel dx="1434" dy="786" grid="1" gridSize="10" guides="1" tooltips="1" connect="1" arrows="1" fold="1" page="1" pageScale="1" pageWidth="827" pageHeight="1169" background="none" math="0" shadow="0">
      <root>
        <mxCell id="0" />
        <mxCell id="1" parent="0" />
        <mxCell id="j-q695A2j5VjmODQ1Fel-1" value="Actor" style="shape=umlActor;verticalLabelPosition=bottom;verticalAlign=top;html=1;" parent="1" vertex="1">
          <mxGeometry x="170" y="288" width="30" height="60" as="geometry" />
        </mxCell>
        <mxCell id="j-q695A2j5VjmODQ1Fel-4" value="Đăng nhập" style="ellipse;whiteSpace=wrap;html=1;fontStyle=0" parent="1" vertex="1">
          <mxGeometry x="690" y="288" width="120" height="80" as="geometry" />
        </mxCell>
        <mxCell id="j-q695A2j5VjmODQ1Fel-5" value="Đăng ký" style="ellipse;whiteSpace=wrap;html=1;" parent="1" vertex="1">
          <mxGeometry x="530" y="420" width="120" height="80" as="geometry" />
        </mxCell>
        <mxCell id="j-q695A2j5VjmODQ1Fel-6" value="Xem thông tin truyện" style="ellipse;whiteSpace=wrap;html=1;" parent="1" vertex="1">
          <mxGeometry x="310" y="540" width="120" height="80" as="geometry" />
        </mxCell>
        <mxCell id="j-q695A2j5VjmODQ1Fel-8" value="Actor" style="shape=umlActor;verticalLabelPosition=bottom;verticalAlign=top;html=1;" parent="1" vertex="1">
          <mxGeometry x="20" y="180" width="30" height="60" as="geometry" />
        </mxCell>
        <mxCell id="j-q695A2j5VjmODQ1Fel-11" value="Admin" style="text;html=1;align=center;verticalAlign=middle;resizable=0;points=[];autosize=1;strokeColor=none;fillColor=none;" parent="1" vertex="1">
          <mxGeometry x="45" y="220" width="60" height="30" as="geometry" />
        </mxCell>
        <mxCell id="j-q695A2j5VjmODQ1Fel-12" value="User" style="text;html=1;align=center;verticalAlign=middle;resizable=0;points=[];autosize=1;strokeColor=none;fillColor=none;" parent="1" vertex="1">
          <mxGeometry x="110" y="368" width="50" height="30" as="geometry" />
        </mxCell>
        <mxCell id="j-q695A2j5VjmODQ1Fel-13" value="Thêm truyện" style="ellipse;whiteSpace=wrap;html=1;" parent="1" vertex="1">
          <mxGeometry x="180" y="10" width="120" height="80" as="geometry" />
        </mxCell>
        <mxCell id="j-q695A2j5VjmODQ1Fel-14" value="Sửa truyện" style="ellipse;whiteSpace=wrap;html=1;" parent="1" vertex="1">
          <mxGeometry y="10" width="120" height="80" as="geometry" />
        </mxCell>
        <mxCell id="j-q695A2j5VjmODQ1Fel-15" value="Xóa truyện" style="ellipse;whiteSpace=wrap;html=1;" parent="1" vertex="1">
          <mxGeometry x="330" y="80" width="120" height="80" as="geometry" />
        </mxCell>
        <mxCell id="j-q695A2j5VjmODQ1Fel-21" value="" style="endArrow=none;html=1;rounded=0;" parent="1" source="j-q695A2j5VjmODQ1Fel-8" edge="1">
          <mxGeometry width="50" height="50" relative="1" as="geometry">
            <mxPoint x="20" y="140" as="sourcePoint" />
            <mxPoint x="70" y="90" as="targetPoint" />
          </mxGeometry>
        </mxCell>
        <mxCell id="j-q695A2j5VjmODQ1Fel-22" value="" style="endArrow=none;html=1;rounded=0;" parent="1" source="j-q695A2j5VjmODQ1Fel-8" edge="1">
          <mxGeometry width="50" height="50" relative="1" as="geometry">
            <mxPoint x="180" y="145" as="sourcePoint" />
            <mxPoint x="230" y="95" as="targetPoint" />
          </mxGeometry>
        </mxCell>
        <mxCell id="j-q695A2j5VjmODQ1Fel-23" value="" style="endArrow=none;html=1;rounded=0;exitX=0.667;exitY=0.667;exitDx=0;exitDy=0;exitPerimeter=0;" parent="1" source="j-q695A2j5VjmODQ1Fel-8" edge="1">
          <mxGeometry width="50" height="50" relative="1" as="geometry">
            <mxPoint x="290" y="190" as="sourcePoint" />
            <mxPoint x="340" y="140" as="targetPoint" />
          </mxGeometry>
        </mxCell>
        <mxCell id="j-q695A2j5VjmODQ1Fel-38" value="Tìm kiếm" style="ellipse;whiteSpace=wrap;html=1;" parent="1" vertex="1">
          <mxGeometry x="450" y="180" width="120" height="80" as="geometry" />
        </mxCell>
        <mxCell id="j-q695A2j5VjmODQ1Fel-49" value="" style="shape=flexArrow;endArrow=classic;html=1;rounded=0;exitX=0.133;exitY=1.067;exitDx=0;exitDy=0;exitPerimeter=0;" parent="1" source="j-q695A2j5VjmODQ1Fel-11" target="j-q695A2j5VjmODQ1Fel-1" edge="1">
          <mxGeometry width="50" height="50" relative="1" as="geometry">
            <mxPoint x="45" y="333" as="sourcePoint" />
            <mxPoint x="95" y="283" as="targetPoint" />
          </mxGeometry>
        </mxCell>
        <mxCell id="j-q695A2j5VjmODQ1Fel-50" value="Thêm vào giỏ hàng" style="ellipse;whiteSpace=wrap;html=1;" parent="1" vertex="1">
          <mxGeometry x="470" y="640" width="120" height="80" as="geometry" />
        </mxCell>
        <mxCell id="j-q695A2j5VjmODQ1Fel-54" value="&amp;lt;extend&amp;gt;" style="text;html=1;align=center;verticalAlign=middle;resizable=0;points=[];autosize=1;strokeColor=none;fillColor=none;" parent="1" vertex="1">
          <mxGeometry x="360" y="283" width="70" height="30" as="geometry" />
        </mxCell>
        <mxCell id="j-q695A2j5VjmODQ1Fel-55" value="&amp;lt;extend&amp;gt;" style="text;html=1;align=center;verticalAlign=middle;resizable=0;points=[];autosize=1;strokeColor=none;fillColor=none;" parent="1" vertex="1">
          <mxGeometry x="310" y="230" width="70" height="30" as="geometry" />
        </mxCell>
        <mxCell id="j-q695A2j5VjmODQ1Fel-56" value="&amp;lt;extend&amp;gt;" style="text;html=1;align=center;verticalAlign=middle;resizable=0;points=[];autosize=1;strokeColor=none;fillColor=none;" parent="1" vertex="1">
          <mxGeometry x="280" y="410" width="70" height="30" as="geometry" />
        </mxCell>
        <mxCell id="j-q695A2j5VjmODQ1Fel-57" value="" style="html=1;verticalAlign=bottom;endArrow=open;dashed=1;endSize=8;curved=0;rounded=0;entryX=0.75;entryY=0.1;entryDx=0;entryDy=0;entryPerimeter=0;exitX=-0.008;exitY=0.588;exitDx=0;exitDy=0;exitPerimeter=0;" parent="1" edge="1">
          <mxGeometry relative="1" as="geometry">
            <mxPoint x="708.27" y="354.03999999999996" as="sourcePoint" />
            <mxPoint x="311.73" y="313" as="targetPoint" />
          </mxGeometry>
        </mxCell>
        <mxCell id="j-q695A2j5VjmODQ1Fel-58" value="&amp;lt;extend&amp;gt;" style="html=1;verticalAlign=bottom;endArrow=open;dashed=1;endSize=8;curved=0;rounded=0;" parent="1" source="j-q695A2j5VjmODQ1Fel-5" edge="1">
          <mxGeometry x="0.0166" y="-11" relative="1" as="geometry">
            <mxPoint x="470" y="450" as="sourcePoint" />
            <mxPoint x="300" y="360" as="targetPoint" />
            <mxPoint as="offset" />
          </mxGeometry>
        </mxCell>
        <mxCell id="j-q695A2j5VjmODQ1Fel-60" value="" style="html=1;verticalAlign=bottom;endArrow=open;dashed=1;endSize=8;curved=0;rounded=0;" parent="1" edge="1">
          <mxGeometry relative="1" as="geometry">
            <mxPoint x="335" y="539" as="sourcePoint" />
            <mxPoint x="260" y="370" as="targetPoint" />
          </mxGeometry>
        </mxCell>
        <mxCell id="j-q695A2j5VjmODQ1Fel-61" value="Thanh toán" style="ellipse;whiteSpace=wrap;html=1;" parent="1" vertex="1">
          <mxGeometry x="650" y="720" width="120" height="80" as="geometry" />
        </mxCell>
        <mxCell id="j-q695A2j5VjmODQ1Fel-62" value="&amp;lt;extend&amp;gt;" style="html=1;verticalAlign=bottom;endArrow=open;dashed=1;endSize=8;curved=0;rounded=0;exitX=0;exitY=0;exitDx=0;exitDy=0;" parent="1" source="j-q695A2j5VjmODQ1Fel-50" target="j-q695A2j5VjmODQ1Fel-6" edge="1">
          <mxGeometry x="-0.2923" y="-34" relative="1" as="geometry">
            <mxPoint x="494" y="620" as="sourcePoint" />
            <mxPoint x="414" y="620" as="targetPoint" />
            <Array as="points">
              <mxPoint x="454" y="630" />
            </Array>
            <mxPoint as="offset" />
          </mxGeometry>
        </mxCell>
        <mxCell id="j-q695A2j5VjmODQ1Fel-63" value="Kiểm tra" style="ellipse;whiteSpace=wrap;html=1;" parent="1" vertex="1">
          <mxGeometry x="690" y="133" width="120" height="80" as="geometry" />
        </mxCell>
        <mxCell id="j-q695A2j5VjmODQ1Fel-64" value="" style="html=1;verticalAlign=bottom;endArrow=open;dashed=1;endSize=8;curved=0;rounded=0;entryX=0;entryY=0.5;entryDx=0;entryDy=0;exitX=0.992;exitY=0.4;exitDx=0;exitDy=0;exitPerimeter=0;" parent="1" source="j-q695A2j5VjmODQ1Fel-38" target="j-q695A2j5VjmODQ1Fel-63" edge="1">
          <mxGeometry x="-1" y="-22" relative="1" as="geometry">
            <mxPoint x="590" y="210" as="sourcePoint" />
            <mxPoint x="570" y="170" as="targetPoint" />
            <mxPoint x="10" y="2" as="offset" />
          </mxGeometry>
        </mxCell>
        <mxCell id="j-q695A2j5VjmODQ1Fel-65" value="&amp;lt;include&amp;gt;" style="text;html=1;align=center;verticalAlign=middle;resizable=0;points=[];autosize=1;strokeColor=none;fillColor=none;" parent="1" vertex="1">
          <mxGeometry x="550" y="158" width="80" height="30" as="geometry" />
        </mxCell>
        <mxCell id="j-q695A2j5VjmODQ1Fel-66" value="&amp;lt;extend&amp;gt;" style="html=1;verticalAlign=bottom;endArrow=open;dashed=1;endSize=8;curved=0;rounded=0;exitX=0.575;exitY=-0.025;exitDx=0;exitDy=0;exitPerimeter=0;" parent="1" source="j-q695A2j5VjmODQ1Fel-61" target="j-q695A2j5VjmODQ1Fel-50" edge="1">
          <mxGeometry relative="1" as="geometry">
            <mxPoint x="700" y="760" as="sourcePoint" />
            <mxPoint x="620" y="760" as="targetPoint" />
          </mxGeometry>
        </mxCell>
        <mxCell id="IwHdCleZ9VmywWRD2jaq-1" value="Đặt truyện" style="ellipse;whiteSpace=wrap;html=1;" vertex="1" parent="1">
          <mxGeometry x="200" y="288" width="120" height="80" as="geometry" />
        </mxCell>
        <mxCell id="IwHdCleZ9VmywWRD2jaq-2" value="" style="html=1;verticalAlign=bottom;endArrow=open;dashed=1;endSize=8;curved=0;rounded=0;entryX=0.25;entryY=0.025;entryDx=0;entryDy=0;entryPerimeter=0;exitX=0.208;exitY=0.938;exitDx=0;exitDy=0;exitPerimeter=0;" edge="1" parent="1" source="j-q695A2j5VjmODQ1Fel-38" target="IwHdCleZ9VmywWRD2jaq-1">
          <mxGeometry relative="1" as="geometry">
            <mxPoint x="550" y="270" as="sourcePoint" />
            <mxPoint x="160.00000000000003" y="230" as="targetPoint" />
          </mxGeometry>
        </mxCell>
      </root>
    </mxGraphModel>
  </diagram>
</mxfile>
